<?xml version="1.0" encoding="UTF-8"?>
<svg width="375px" height="228px" viewBox="0 0 375 228" version="1.1" xmlns="http://www.w3.org/2000/svg" xmlns:xlink="http://www.w3.org/1999/xlink">
    <!-- Generator: Sketch 60 (88103) - https://sketch.com -->
    <title>bg_login</title>
    <desc>Created with Sketch.</desc>
    <defs>
        <linearGradient x1="100%" y1="62.1268961%" x2="-3.09195958%" y2="45.4190034%" id="linearGradient-1">
            <stop stop-color="#1371F7" offset="0%"></stop>
            <stop stop-color="#6DA9FF" offset="100%"></stop>
        </linearGradient>
        <rect id="path-2" x="0" y="0" width="375" height="228"></rect>
        <linearGradient x1="84.3084829%" y1="58.995992%" x2="0%" y2="63.9549522%" id="linearGradient-4">
            <stop stop-color="#1774F8" offset="0%"></stop>
            <stop stop-color="#5098FE" stop-opacity="0.177338287" offset="100%"></stop>
        </linearGradient>
        <linearGradient x1="78.6245203%" y1="79.5629247%" x2="-54.0992697%" y2="53.7264487%" id="linearGradient-5">
            <stop stop-color="#227BF9" stop-opacity="0.552911932" offset="0%"></stop>
            <stop stop-color="#EDCFFF" offset="100%"></stop>
        </linearGradient>
        <linearGradient x1="77.4964464%" y1="94.7471397%" x2="19.499601%" y2="44.3957208%" id="linearGradient-6">
            <stop stop-color="#1E65FF" stop-opacity="0" offset="0%"></stop>
            <stop stop-color="#1E66FF" stop-opacity="0.00647013855" offset="0.956001098%"></stop>
            <stop stop-color="#75A2FF" offset="100%"></stop>
        </linearGradient>
        <path d="M49.9002752,68.316552 L49.9002752,73.1847595 L29.9764129,73.1847595 L29.9764129,68.316552 L49.9002752,68.316552 Z M15.4213851,54.0485175 L14.8056693,55.5496751 L27.9574562,55.5496751 L27.0192986,57.4441049 L14.0289323,57.4441049 L11.3123507,64.0714814 L17.3836049,64.0714814 L17.3836049,58.6032019 L19.6890433,59.5093694 L19.6890433,64.0714814 L27.9574562,64.0714814 L26.9629612,65.9764661 L19.6890433,65.9764661 L19.6890433,68.3916099 L27.9574562,68.3916099 L26.9629612,70.3759527 L19.6890433,70.3759527 L19.6890433,72.8692818 L17.3836049,71.9654598 L17.3836049,70.3759527 L7.99563596,70.3759527 L8.95057492,68.3916099 L17.3836049,68.3916099 L17.3836049,65.9764661 L7.99084129,65.9764661 L11.5253141,57.4441049 L7.99563596,57.4441049 L8.95057492,55.5496751 L12.3104417,55.5496751 L12.9321509,54.0485175 L15.4213851,54.0485175 Z M59.1607858,58.4526952 L58.1970566,60.2974772 L55.5188324,60.2974772 L55.5188324,64.0316069 L59.1871565,64.0316069 L58.2905527,65.9643474 L55.5188324,65.9643474 L55.5188324,70.3868987 L58.1998535,70.3868987 L57.2493097,72.7113475 L53.2797203,72.7602133 L53.2797203,70.5862712 L53.2749256,69.9275601 L53.2749256,65.9643474 L51.9607858,65.9643474 L51.9607858,64.0316069 L53.2749256,64.0316069 L53.2781221,60.3193691 L51.962384,60.2927861 L51.9607858,58.4526952 L59.1607858,58.4526952 Z M66.9529279,54.5567219 L66.9529279,58.4425311 L71.441141,58.4425311 L71.441141,72.7160386 L66.9848923,72.7160386 L67.8679112,70.8055809 L69.1968346,70.8055809 L69.1968346,68.9822998 L62.1051143,68.9822998 L62.1051143,71.7758604 L59.860808,72.6964923 L59.860808,58.4425311 L64.708222,58.4425311 L64.708222,54.5567219 L66.9529279,54.5567219 Z M47.535303,70.1679798 L32.3413851,70.1679798 L32.3413851,71.3337226 L47.535303,71.3337226 L47.535303,70.1679798 Z M49.9002752,62.2145807 L49.9002752,67.0827881 L29.9764129,67.0827881 L29.9764129,62.2145807 L49.9002752,62.2145807 Z M69.1968346,64.5910227 L62.1047148,64.5910227 L62.1047148,67.0503412 L69.1968346,67.0503412 L69.1968346,64.5910227 Z M47.535303,64.0660085 L32.3413851,64.0660085 L32.3413851,65.2317512 L47.535303,65.2317512 L47.535303,64.0660085 Z M69.1972342,60.3752716 L62.1051143,60.3752716 L62.1051143,62.6590641 L69.1972342,62.6590641 L69.1972342,60.3752716 Z M46.9255805,58.4179027 C48.5737492,58.4179027 49.9074673,59.7286792 49.9003042,61.3412509 L49.9003042,61.3412509 L47.8461576,61.3412509 C47.8461576,60.7677618 47.3710855,60.3029502 46.7849367,60.3029502 L46.7849367,60.3029502 L33.0937492,60.3029502 C32.508,60.3029502 32.0329279,60.7677618 32.0329279,61.3412509 L32.0329279,61.3412509 L29.9784107,61.3283503 C29.9784107,59.7208607 31.3105305,58.4179027 32.953505,58.4179027 L32.953505,58.4179027 Z M71.9198091,54.5567219 L70.2872231,57.6778789 L67.9981665,57.6778789 L69.6307525,54.5567219 L71.9198091,54.5567219 Z M62.1946149,54.5567219 L63.6214295,57.6778789 L61.3323729,57.6778789 L59.860808,54.5567219 L62.1946149,54.5567219 Z M56.2951698,54.1579769 L55.4784772,55.5430294 L59.1607858,55.5430294 L58.2086437,57.3553645 L51.9591876,57.3553645 L53.7420067,54.1579769 L56.2951698,54.1579769 Z M37.0473563,53.7330398 L37.0473563,55.4108962 L42.8181443,55.4108962 L42.8181443,53.7330398 L45.1831165,53.7330398 L45.1831165,55.4108962 L49.9134606,55.4108962 L48.9053807,57.2619331 L29.9528391,57.2619331 L30.9445372,55.4108962 L34.6827836,55.4108962 L34.6827836,53.7330398 L37.0473563,53.7330398 Z M39.96,1.77635684e-14 C51.4524306,1.77635684e-14 61.6267259,7.07694202 65.6039068,17.3250796 L65.6039068,17.3250796 L72.2173585,17.3250796 L72.8362708,17.6796499 C77.200222,20.1768883 79.9112098,24.7980302 79.9112098,29.7393409 C79.9112098,34.6810425 77.200222,39.3021843 72.8362708,41.7994227 L72.8362708,41.7994227 L72.2173585,42.153993 L68.0743618,42.153993 C66.6127858,45.6539578 63.0966926,48.1273496 59.0000444,48.1273496 C53.5960488,48.1273496 49.2001332,43.8263765 49.2001332,38.5394868 C49.2001332,33.2525971 53.5960488,28.951624 59.0000444,28.951624 C63.8582464,28.951624 67.9001554,32.4293059 68.6665039,36.9734353 L68.6665039,36.9734353 L70.7318091,36.9734353 C73.1435294,35.3420991 74.616293,32.6278966 74.616293,29.7393409 C74.616293,26.851567 73.1435294,24.1365826 70.7318091,22.5056373 L70.7318091,22.5056373 L61.7725638,22.5056373 L61.7725638,22.4368343 L61.6379134,22.4638082 C59.5430411,12.4494446 50.4263707,5.18055768 39.96,5.18055768 C29.4828413,5.18055768 20.3641731,12.4584359 18.2776915,22.4853091 L18.2776915,22.4853091 L18.1382464,22.4575534 L18.1382464,22.5056373 L9.17900111,22.5056373 C6.76768036,24.1365826 5.2945172,26.851567 5.2945172,29.7393409 C5.2945172,32.6278966 6.76768036,35.3420991 9.17900111,36.9734353 L9.17900111,36.9734353 L11.1823751,36.9734353 C11.694606,32.1540937 15.8699667,28.3839988 20.9291454,28.3839988 C26.3327414,28.3839988 30.728657,32.6849719 30.728657,37.9722525 C30.728657,43.2591422 26.3327414,47.5601153 20.9291454,47.5601153 C17.0566482,47.5601153 13.7027747,45.3513807 12.1121421,42.153993 L12.1121421,42.153993 L7.69345172,42.153993 L7.0745394,41.7994227 C2.71058824,39.3021843 -2.48689958e-13,34.6810425 -2.48689958e-13,29.7393409 C-2.48689958e-13,24.7980302 2.71058824,20.1768883 7.0745394,17.6796499 L7.0745394,17.6796499 L7.69345172,17.3250796 L14.3160932,17.3250796 C18.292475,7.07576924 28.4639734,1.77635684e-14 39.96,1.77635684e-14 Z M46.1163596,40.1231299 C46.1187569,40.1485402 46.1215538,40.1739504 46.1239512,40.1989697 C46.1894784,40.8334434 45.8690344,41.4452433 45.3112542,41.7740125 C44.0039068,42.5457013 42.2498557,43.1895572 40.0359156,43.1895572 C37.7540511,43.1895572 35.985616,42.542183 34.6842619,41.7665849 C34.1093008,41.4237423 33.8160266,40.7677677 33.9139179,40.1157023 C33.9175139,40.0934195 33.9207103,40.0711367 33.9239068,40.048463 C34.0889234,38.9171218 35.3455272,38.2732659 36.3771809,38.8092261 C37.3013541,39.2896747 38.5124084,39.6673097 40.0359156,39.6673097 C41.5190677,39.6673097 42.7237292,39.2822471 43.6550943,38.7947618 C44.7123196,38.2419917 46.0008879,38.9554326 46.1163596,40.1231299 Z M59.0000444,34.1317908 C56.5156049,34.1317908 54.4946504,36.1090969 54.4946504,38.5394868 C54.4946504,40.9698767 56.5156049,42.9467919 59.0000444,42.9467919 C61.4836848,42.9467919 63.5046393,40.9698767 63.5046393,38.5394868 C63.5046393,36.1090969 61.4836848,34.1317908 59.0000444,34.1317908 Z M20.9291454,33.5641655 C18.4451054,33.5641655 16.4241509,35.5414716 16.4241509,37.9722525 C16.4241509,40.4026424 18.4451054,42.3795576 20.9291454,42.3795576 C23.4131853,42.3795576 25.4341398,40.4026424 25.4341398,37.9722525 C25.4341398,35.5414716 23.4131853,33.5641655 20.9291454,33.5641655 Z" id="path-7"></path>
    </defs>
    <g id="登录" stroke="none" stroke-width="1" fill="none" fill-rule="evenodd">
        <g id="账号密码登录-默认">
            <g id="分组-5">
                <g id="椭圆形">
                    <mask id="mask-3" fill="white">
                        <use xlink:href="#path-2"></use>
                    </mask>
                    <use id="Mask" fill="url(#linearGradient-1)" fill-rule="nonzero" xlink:href="#path-2"></use>
                    <path d="M419.039924,110.398708 C405.010121,137.969151 348.142976,156.600494 304.796761,141.756963 C272.276855,130.62304 280.159227,69.4995193 302.288268,35.3480082 C322.999985,3.39131985 358.718263,25.9413818 377.903369,38.686995 C405.906622,57.2945363 433.06631,82.8299653 419.039924,110.398708" id="Fill-1备份" fill="url(#linearGradient-4)" mask="url(#mask-3)" transform="translate(352.925926, 83.000000) rotate(-57.000000) translate(-352.925926, -83.000000) "></path>
                    <path d="M268.410199,97.1529318 C238.31449,151.797758 116.327233,188.725221 23.3440933,159.30523 C-46.4152399,137.237711 -29.5065505,16.0904298 17.9630567,-51.598124 C62.3923233,-114.936522 139.01257,-70.2421288 180.16706,-44.9802267 C240.237597,-8.09993893 298.498582,42.5114748 268.410199,97.1529318" id="Fill-1" fill="url(#linearGradient-5)" mask="url(#mask-3)" transform="translate(126.587270, 42.848485) rotate(32.000000) translate(-126.587270, -42.848485) "></path>
                    <path d="M112.548619,191.67159 C92.4848134,231.088708 11.1599756,257.725706 -50.8287843,236.504095 C-97.3350064,220.586065 -86.0625468,133.198532 -54.416142,84.3725429 C-24.7966309,38.6844651 26.2835334,70.9240067 53.7198601,89.1462507 C93.7668848,115.74922 132.607541,152.256903 112.548619,191.67159" id="Fill-1备份-2" fill="url(#linearGradient-6)" mask="url(#mask-3)" transform="translate(18.000000, 152.500000) rotate(-48.000000) translate(-18.000000, -152.500000) "></path>
                </g>
                <g id="icon/logo/shangxia/bianse" fill="#FFFFFF" transform="translate(148.000000, 77.000000)">
                    <g id="color/c2" fill="none" transform="translate(0.000000, 3.330789)">
                        <g>
                            <mask id="mask-8" fill="white">
                                <use xlink:href="#path-7"></use>
                            </mask>
                            <use id="Mask" fill="#3C3C3C" xlink:href="#path-7"></use>
                            <g id="color/cwhite" mask="url(#mask-8)" fill="#FFFFFF">
                                <g transform="translate(0.000000, -3.330789)" id="color">
                                    <rect x="0" y="0" width="80.5128205" height="80.4513603"></rect>
                                </g>
                            </g>
                        </g>
                    </g>
                </g>
            </g>
        </g>
    </g>
</svg>