<?xml version="1.0" encoding="UTF-8"?>
<svg width="48px" height="48px" viewBox="0 0 48 48" version="1.1" xmlns="http://www.w3.org/2000/svg" xmlns:xlink="http://www.w3.org/1999/xlink">
    <!-- Generator: Sketch 60 (88103) - https://sketch.com -->
    <title>icon/colour/upload image@2x</title>
    <desc>Created with Sketch.</desc>
    <defs>
        <circle id="path-1" cx="24" cy="24" r="24"></circle>
        <path d="M2.1174622,5.09197351 L2.12028659,19.6527169 C2.12028659,19.864264 2.29229223,20.0364109 2.50369818,20.0364109 L23.5364008,20.0364109 C23.7452648,20.0364109 23.9174117,19.8670884 23.9200949,19.6587893 L23.9200949,5.09197351 C23.9200949,4.88042634 23.747948,4.7084207 23.5364008,4.7084207 L19.0064954,4.7084207 C18.6780183,4.7084207 18.3731248,4.5595751 18.1703333,4.30015445 L16.4711774,2.12028659 L9.85291448,2.12028659 L8.26376879,4.27642953 C8.06888555,4.54587679 7.74958773,4.7084207 7.41193134,4.7084207 L2.501015,4.7084207 C2.28946784,4.7084207 2.1174622,4.88042634 2.1174622,5.09197351 M16.9884653,1.34719334e-05 C17.3170837,1.34719334e-05 17.6218358,0.148859074 17.8246274,0.40842095 L19.5237833,2.5882888 L23.5335765,2.5882888 C24.9108925,2.5882888 26.0340131,3.71098571 26.0374024,5.09098497 L26.0374024,19.6528581 C26.0374024,21.03201 24.9142818,22.1538596 23.5335765,22.1538596 L2.50369818,22.1538596 C1.12327526,22.1538596 1.34719317e-05,21.03201 1.34719317e-05,19.6528581 L1.34719317e-05,5.09197351 C1.34719317e-05,3.71140937 1.12327526,2.5882888 2.50369818,2.5882888 L6.87882683,2.5882888 L8.46500691,0.432287085 C8.66031381,0.162557389 8.97961163,1.34719334e-05 9.3171268,1.34719334e-05 L16.9884653,1.34719334e-05 Z M13.1538462,5.37880716 C9.50119767,5.37880716 6.52936954,8.35049407 6.52936954,12.0032838 C6.52936954,15.6560735 9.50119767,18.6279016 13.1538462,18.6279016 C16.8066359,18.6279016 19.7783228,15.6560735 19.7783228,12.0032838 C19.7783228,8.35049407 16.8066359,5.37880716 13.1538462,5.37880716 Z M13.1185526,7.55875743 C15.6037375,7.55875743 17.6257217,9.5806004 17.6257217,12.0657853 C17.6257217,14.5511115 15.6037375,16.5729544 13.1185526,16.5729544 C10.6333677,16.5729544 8.61152471,14.5511115 8.61152471,12.0657853 C8.61152471,9.5806004 10.6333677,7.55875743 13.1185526,7.55875743 Z M21.8937329,5.59415089 C22.6160718,5.59415089 23.2036871,6.18176621 23.2036871,6.90396395 C23.2036871,7.62616168 22.6160718,8.213777 21.8937329,8.213777 C21.1715351,8.213777 20.5839198,7.62616168 20.5839198,6.90396395 C20.5839198,6.18176621 21.1715351,5.59415089 21.8937329,5.59415089 Z" id="path-3"></path>
    </defs>
    <g id="内饰检查" stroke="none" stroke-width="1" fill="none" fill-rule="evenodd">
        <g id="内饰检查-列表-详情-上传图片/视频" transform="translate(-82.000000, -866.000000)">
            <g id="编组-9" transform="translate(15.000000, 751.000000)">
                <g id="currency/placeholder/2" transform="translate(20.000000, 79.000000)">
                    <g id="编组-3" transform="translate(47.000000, 36.000000)">
                        <g id="icon/colour/upload-image">
                            <g id="编组">
                                <g id="color/c11">
                                    <mask id="mask-2" fill="white">
                                        <use xlink:href="#path-1"></use>
                                    </mask>
                                    <g id="蒙版" fill-rule="nonzero"></g>
                                    <g opacity="0.6" mask="url(#mask-2)" fill="#1371F7" id="color">
                                        <rect x="0" y="0" width="48" height="48"></rect>
                                    </g>
                                </g>
                                <g id="icon/Line/camera" opacity="0.8" transform="translate(7.384615, 7.384615)">
                                    <g id="color/c2" transform="translate(4.153846, 5.538462)">
                                        <mask id="mask-4" fill="white">
                                            <use xlink:href="#path-3"></use>
                                        </mask>
                                        <g id="Mask"></g>
                                        <g id="color/cwhite" mask="url(#mask-4)" fill="#FFFFFF">
                                            <g transform="translate(-4.153846, -5.538462)" id="color">
                                                <rect x="0" y="0" width="33.443787" height="33.443787"></rect>
                                            </g>
                                        </g>
                                    </g>
                                </g>
                            </g>
                        </g>
                    </g>
                </g>
            </g>
        </g>
    </g>
</svg>