<?xml version="1.0" encoding="UTF-8"?>
<svg width="24px" height="24px" viewBox="0 0 24 24" version="1.1" xmlns="http://www.w3.org/2000/svg" xmlns:xlink="http://www.w3.org/1999/xlink">
    <!-- Generator: Sketch 60 (88103) - https://sketch.com -->
    <title>icon/cell/camera@2x</title>
    <desc>Created with Sketch.</desc>
    <defs>
        <path d="M1.52927826,3.67753642 L1.5313181,14.1936289 C1.5313181,14.3464129 1.65554439,14.4707412 1.80822646,14.4707412 L16.9985117,14.4707412 C17.1493579,14.4707412 17.2736862,14.3484528 17.2756241,14.1980145 L17.2756241,3.67753642 C17.2756241,3.52475236 17.1512958,3.40052606 16.9985117,3.40052606 L13.7269133,3.40052606 C13.4896798,3.40052606 13.2694791,3.29302646 13.1230185,3.1056671 L11.8958504,1.5313181 L7.11599379,1.5313181 L5.96827746,3.08853244 C5.82752845,3.28313324 5.59692447,3.40052606 5.35306152,3.40052606 L1.80628861,3.40052606 C1.65350455,3.40052606 1.52927826,3.52475236 1.52927826,3.67753642 M12.2694472,9.7297297e-06 C12.5067826,9.7297297e-06 12.7268814,0.107509331 12.873342,0.294970686 L14.1005101,1.86931969 L16.9964719,1.86931969 C17.9912002,1.86931969 18.8023428,2.68015634 18.8047906,3.67682248 L18.8047906,14.1937308 C18.8047906,15.189785 17.993648,16.0000097 16.9964719,16.0000097 L1.80822646,16.0000097 C0.811254351,16.0000097 9.72972842e-06,15.189785 9.72972842e-06,14.1937308 L9.72972842e-06,3.67753642 C9.72972842e-06,2.68046232 0.811254351,1.86931969 1.80822646,1.86931969 L4.9680416,1.86931969 L6.1136161,0.312207339 C6.25467108,0.117402558 6.48527507,9.7297297e-06 6.72903602,9.7297297e-06 L12.2694472,9.7297297e-06 Z M9.5,3.88469406 C6.8619761,3.88469406 4.71565578,6.03091239 4.71565578,8.66903828 C4.71565578,11.3071642 6.8619761,13.4534845 9.5,13.4534845 C12.1381259,13.4534845 14.2843442,11.3071642 14.2843442,8.66903828 C14.2843442,6.03091239 12.1381259,3.88469406 9.5,3.88469406 Z M9.47451021,5.45910259 C11.269366,5.45910259 12.7296879,6.91932251 12.7296879,8.71417829 C12.7296879,10.5091361 11.269366,11.969356 9.47451021,11.969356 C7.67965443,11.969356 6.21943451,10.5091361 6.21943451,8.71417829 C6.21943451,6.91932251 7.67965443,5.45910259 9.47451021,5.45910259 Z M15.8121404,4.04022009 C16.3338297,4.04022009 16.7582185,4.46460893 16.7582185,4.98619618 C16.7582185,5.50778343 16.3338297,5.93217228 15.8121404,5.93217228 C15.2905532,5.93217228 14.8661643,5.50778343 14.8661643,4.98619618 C14.8661643,4.46460893 15.2905532,4.04022009 15.8121404,4.04022009 Z" id="path-1"></path>
    </defs>
    <g id="内饰检查" stroke="none" stroke-width="1" fill="none" fill-rule="evenodd">
        <g id="车辆检查-列表-详情-底盘四轮" transform="translate(-336.000000, -509.000000)">
            <g id="编组备份-4" transform="translate(0.000000, 496.000000)">
                <g id="title-bar/input备份-2" transform="translate(336.000000, 13.000000)">
                    <g id="icon/public/Close-Copy">
                        <g id="color/c2" transform="translate(3.000000, 4.000000)">
                            <mask id="mask-2" fill="white">
                                <use xlink:href="#path-1"></use>
                            </mask>
                            <g id="Mask"></g>
                            <g id="color/c3-2" mask="url(#mask-2)" fill="#9EA2A8">
                                <g transform="translate(-3.000000, -4.000000)" id="color">
                                    <rect x="0" y="0" width="24.1538462" height="24.1538462"></rect>
                                </g>
                            </g>
                        </g>
                    </g>
                </g>
            </g>
        </g>
    </g>
</svg>