<?xml version="1.0" encoding="UTF-8"?>
<svg width="24px" height="25px" viewBox="0 0 24 25" version="1.1" xmlns="http://www.w3.org/2000/svg" xmlns:xlink="http://www.w3.org/1999/xlink">
    <!-- Generator: Sketch 60 (88103) - https://sketch.com -->
    <title>icon_ waiguanyulan_ weixiulishi</title>
    <desc>Created with Sketch.</desc>
    <g id="快速工单" stroke="none" stroke-width="1" fill="none" fill-rule="evenodd">
        <g id="快速工单-新增工单-新增工单" transform="translate(-55.000000, -158.000000)">
            <g id="编组-8" transform="translate(55.000000, 159.000000)">
                <g id="编组-6">
                    <g id="编组-3备份" transform="translate(1.411765, 2.823529)">
                        <g id="编组-2备份">
                            <path d="M14.1889338,0.676470588 C14.603184,0.676470588 14.9681577,0.948778547 15.0861338,1.34587409 L16.2054443,5.11248345 C16.0244234,5.09746332 15.8413141,5.08980323 15.6564163,5.08980323 C12.0380769,5.08980323 9.10466119,8.0232189 9.10466119,11.6415584 C9.10466119,12.7260876 9.36820503,13.7490862 9.83474324,14.6500039 L5.4394489,14.6497571 C5.4394489,15.8157073 4.49425947,16.7608968 3.32830922,16.7608968 L2.94560315,16.7608968 C1.56829017,16.7608968 0.451757398,15.644364 0.451757398,14.267051 L0.451757398,7.87696425 C0.451757398,7.3600482 0.870800653,6.94100495 1.3877167,6.94100495 L2.39510786,6.94100495 L3.99989641,1.35403531 C4.11512967,0.952858011 4.48208179,0.676470588 4.89948079,0.676470588 L14.1889338,0.676470588 Z" id="形状结合" fill="#1371F7"></path>
                            <path d="M4.21137836,12.3253658 C5.04878236,12.3253658 5.72763244,11.6465157 5.72763244,10.8091117 C5.72763244,9.97170771 5.04878236,9.29285763 4.21137836,9.29285763 C3.37397436,9.29285763 2.69512429,9.97170771 2.69512429,10.8091117 C2.69512429,11.6465157 3.37397436,12.3253658 4.21137836,12.3253658 Z" id="椭圆形" fill="#FFFFFF"></path>
                        </g>
                        <path d="M15.6564474,16.8217686 C12.8418962,16.8217686 10.5601179,14.5400027 10.5601179,11.7255013 C10.5601179,8.91095011 12.8418962,6.62917178 15.6564474,6.62917178 C18.4709489,6.62917178 20.7527147,8.91095011 20.7527147,11.7255013 C20.7527147,14.5400027 18.4709489,16.8217686 15.6564474,16.8217686 Z" id="Fill-1" fill-opacity="0.8" fill="#1371F7"></path>
                        <polyline id="路径-5" stroke="#FFFFFF" stroke-width="1.40393896" stroke-linecap="round" points="15.6563763 8.71868368 15.6563763 11.5263877 18.5108211 11.5263877"></polyline>
                    </g>
                </g>
            </g>
        </g>
    </g>
</svg>