<?xml version="1.0" encoding="UTF-8"?>
<svg width="24px" height="24px" viewBox="0 0 24 24" version="1.1" xmlns="http://www.w3.org/2000/svg" xmlns:xlink="http://www.w3.org/1999/xlink">
    <!-- Generator: Sketch 60 (88103) - https://sketch.com -->
    <title>icon/public/text delete@2x</title>
    <desc>Created with Sketch.</desc>
    <defs>
        <path d="M7,0 C10.8659932,0 14,3.13400675 14,7 C14,10.8659932 10.8659932,14 7,14 C3.13400675,14 0,10.8659932 0,7 C0,3.13400675 3.13400675,0 7,0 Z M4.17839611,3.47128933 C3.97899431,3.27188753 3.65972824,3.26920395 3.46446609,3.46446609 L3.46446609,3.46446609 L3.40822459,3.53231989 C3.27681432,3.72475773 3.29437332,4.0014801 3.47128933,4.17839611 L3.47128933,4.17839611 L6.293,7 L3.47128933,9.82160389 C3.29404329,9.99884993 3.27222892,10.2708035 3.40670835,10.4661883 L3.46446609,10.5355339 L3.53231989,10.5917754 C3.72475773,10.7231857 4.0014801,10.7056267 4.17839611,10.5287107 L4.17839611,10.5287107 L7,7.707 L9.82160389,10.5287107 C9.99884993,10.7059567 10.2708035,10.7277711 10.4661883,10.5932916 L10.5355339,10.5355339 L10.5917754,10.4676801 C10.7231857,10.2752423 10.7056267,9.9985199 10.5287107,9.82160389 L10.5287107,9.82160389 L7.707,7 L10.5287107,4.17839611 C10.7059567,4.00115007 10.7277711,3.72919645 10.5932916,3.53381169 L10.5355339,3.46446609 L10.4676801,3.40822459 C10.2752423,3.27681432 9.9985199,3.29437332 9.82160389,3.47128933 L9.82160389,3.47128933 L7,6.293 Z" id="path-1"></path>
    </defs>
    <g id="外观预检" stroke="none" stroke-width="1" fill="none" fill-rule="evenodd">
        <g id="外观预检-新增预检单-车身外观-故障记录点" transform="translate(-336.000000, -316.000000)">
            <g id="title-bar/picker" transform="translate(0.000000, 303.000000)">
                <g id="右图标备份" transform="translate(336.000000, 13.000000)">
                    <g id="color/c3" transform="translate(9.000000, 5.000000)">
                        <mask id="mask-2" fill="white">
                            <use xlink:href="#path-1"></use>
                        </mask>
                        <use id="蒙版" fill="#D8D8D8" xlink:href="#path-1"></use>
                        <g id="color/c4" mask="url(#mask-2)" fill="#E1E1E1">
                            <g transform="translate(-9.000000, -5.000000)" id="color">
                                <rect x="0" y="0" width="24" height="24"></rect>
                            </g>
                        </g>
                    </g>
                </g>
            </g>
        </g>
    </g>
</svg>