<?xml version="1.0" encoding="UTF-8"?>
<svg width="28px" height="28px" viewBox="0 0 28 28" version="1.1" xmlns="http://www.w3.org/2000/svg" xmlns:xlink="http://www.w3.org/1999/xlink">
    <!-- Generator: Sketch 60 (88103) - https://sketch.com -->
    <title>icon/colour/dianhua2@2x</title>
    <desc>Created with Sketch.</desc>
    <defs>
        <linearGradient x1="15.8182322%" y1="17.8720708%" x2="107.925972%" y2="129.17373%" id="linearGradient-1">
            <stop stop-color="#80B4FF" offset="0%"></stop>
            <stop stop-color="#1371F7" offset="100%"></stop>
        </linearGradient>
    </defs>
    <g id="预约检查" stroke="none" stroke-width="1" fill="none" fill-rule="evenodd">
        <g id="预约检查-已进厂" transform="translate(-322.000000, -232.000000)">
            <g id="编组-2" transform="translate(10.000000, 146.000000)">
                <g id="icon/colour/dianhua2" transform="translate(312.000000, 86.000000)">
                    <circle id="椭圆形-copy-2" fill="url(#linearGradient-1)" fill-rule="nonzero" cx="14" cy="14" r="12.8333333"></circle>
                    <path d="M16.2200266,20.0656821 C14.2152479,19.5725604 12.341706,18.5208986 10.8956157,17.0746567 C9.48243817,15.6286218 8.43067969,13.7550906 7.93781668,11.7498946 C7.3791282,9.61344786 8.29923575,7.77262576 9.44952544,7.44408497 C10.0084209,7.27971107 11.1257979,7.41116879 12.6045939,10.0407372 C13.0647512,10.8296905 12.8018633,11.1911475 12.3746188,11.8157269 C12.2104691,12.0457262 12.0129927,12.3088486 11.7830176,12.7032218 C11.5857481,13.0319696 11.9144615,13.6234258 12.0459054,13.7877997 L12.0788182,13.8207159 C12.0788182,13.8207159 12.5389754,14.5109207 12.9991327,15.0038354 C13.4919957,15.4969571 14.1821281,15.9242464 14.1821281,15.9242464 L14.2152479,15.9573696 C14.3793975,16.0886203 14.9709987,16.4173681 15.2997121,16.220078 C15.6940439,15.9900788 15.9569318,15.7927887 16.1869069,15.6286218 C16.8114208,15.2011255 17.1730469,14.93821 17.9617105,15.3984155 C20.5580905,16.8446575 20.7226542,17.9948607 20.5580905,18.5538148 C20.2952026,19.4742259 19.0463818,20.230056 17.4688475,20.230056 C17.0745157,20.230056 16.6472712,20.1973468 16.2200266,20.0656821 Z" id="Fill-1" fill="#FFFFFF"></path>
                </g>
            </g>
        </g>
    </g>
</svg>