<?xml version="1.0" encoding="UTF-8"?>
<svg width="41px" height="41px" viewBox="0 0 41 41" version="1.1" xmlns="http://www.w3.org/2000/svg" xmlns:xlink="http://www.w3.org/1999/xlink">
    <!-- Generator: Sketch 60 (88103) - https://sketch.com -->
    <title>icon_ After sale_fuwugongju</title>
    <desc>Created with Sketch.</desc>
    <g id="服务助手首页" stroke="none" stroke-width="1" fill="none" fill-rule="evenodd">
        <g transform="translate(-214.000000, -320.000000)" id="分组-8备份">
            <g transform="translate(214.000000, 320.000000)">
                <rect id="矩形-copy-10" fill="#659EF0" x="0" y="0" width="40.1012658" height="40.1012658" rx="10.9367089"></rect>
                <g id="编组-8" transform="translate(11.000000, 9.000000)">
                    <path d="M0.262164391,5.82775708 L17.6788311,5.82775708 L17.6788311,20.0713747 C17.6788311,20.6788879 17.1863443,21.1713747 16.5788311,21.1713747 L1.36216439,21.1713747 C0.754651166,21.1713747 0.262164391,20.6788879 0.262164391,20.0713747 L0.262164391,5.82775708 L0.262164391,5.82775708 Z" id="矩形" fill="#FFFFFF"></path>
                    <polygon id="矩形" fill="#659EF0" points="3.01216439 5.82775708 8.51216439 5.82775708 8.51216439 14.9944238 5.82734537 12.9959738 3.01216439 14.9944238"></polygon>
                    <path d="M1.37974553,0.559781208 L14.1286396,0.559781208 C14.7361529,0.559781208 15.2286396,1.05226798 15.2286396,1.65978121 L15.2286396,4.22644787 L15.2286396,4.22644787 L0.279745534,4.22644787 L0.279745534,1.65978121 C0.279745534,1.05226798 0.772232309,0.559781208 1.37974553,0.559781208 Z" id="矩形备份-9" fill="#FFFFFF" opacity="0.797828311"></path>
                </g>
            </g>
        </g>
    </g>
</svg>