<?xml version="1.0" encoding="UTF-8"?>
<svg width="41px" height="41px" viewBox="0 0 41 41" version="1.1" xmlns="http://www.w3.org/2000/svg" xmlns:xlink="http://www.w3.org/1999/xlink">
    <!-- Generator: Sketch 60 (88103) - https://sketch.com -->
    <title>icon_ After sale_jiaoche</title>
    <desc>Created with Sketch.</desc>
    <g id="服务助手首页" stroke="none" stroke-width="1" fill="none" fill-rule="evenodd">
        <g transform="translate(-121.000000, -320.000000)" id="分组-17">
            <g transform="translate(121.000000, 320.000000)">
                <rect id="矩形-copy-8" fill="#F87A7A" x="0" y="0" width="40.1012658" height="40.1012658" rx="10.9367089"></rect>
                <g id="编组-10" transform="translate(10.000000, 9.000000)">
                    <path d="M0.980049696,2.05469777 C4.06876139,0.850249429 7.15015833,0.248025257 10.2242405,0.248025257 C13.2941766,0.248025257 16.3228885,0.848626052 19.310376,2.04982764 C19.7252154,2.21664745 19.997013,2.61887635 19.997013,3.06600108 C19.997013,11.3084134 19.997013,15.4462985 19.997013,15.4796566 C17.6262412,20.7103847 11.6689937,23.1675131 10.2591532,23.1675131 C8.84931262,23.1675131 2.73321927,20.7569862 0.282727281,15.4796566 C0.282727281,15.4796566 0.282727281,11.3448113 0.282727281,3.07512079 C0.28270284,2.6237887 0.559557222,2.21866952 0.980049696,2.05469777 Z" id="矩形" fill="#FFFFFF" opacity="0.801130022"></path>
                    <path d="M10.1401818,0.248175348 L10.1412395,23.1627266 C8.53728899,23.0416866 2.67022585,20.6213249 0.282727281,15.4796566 L0.282727281,3.07512079 L0.282727281,3.07512079 C0.28270284,2.6237887 0.559557222,2.21866952 0.980049696,2.05469777 C4.04060907,0.861227474 7.09398643,0.259053332 10.1401818,0.248175348 Z" id="形状结合" fill="#FFFFFF"></path>
                    <polygon id="路径-3" fill="#F87A7A" points="4.44576962 10.3930444 7.00633777 7.93630917 9.57957631 10.636555 15.4499474 5.62251376 16.7112987 6.82819627 9.57957631 14.7739968"></polygon>
                </g>
            </g>
        </g>
    </g>
</svg>