<?xml version="1.0" encoding="UTF-8"?>
<svg width="41px" height="41px" viewBox="0 0 41 41" version="1.1" xmlns="http://www.w3.org/2000/svg" xmlns:xlink="http://www.w3.org/1999/xlink">
    <!-- Generator: Sketch 60 (88103) - https://sketch.com -->
    <title>icon_ After sale_jinduchaxun</title>
    <desc>Created with Sketch.</desc>
    <g id="服务助手首页" stroke="none" stroke-width="1" fill="none" fill-rule="evenodd">
        <g transform="translate(-308.000000, -235.000000)" id="分组-18">
            <g transform="translate(306.000000, 234.000000)">
                <rect id="矩形-copy-9" fill="#FFC755" x="2" y="1" width="40.1012658" height="40.1012658" rx="10.9367089"></rect>
                <g id="编组-5">
                    <rect id="矩形" fill="#FFFFFF" x="12.1053949" y="11.2319839" width="20.5714286" height="20.5714286" rx="1.14285714"></rect>
                    <g id="编组-6" transform="translate(17.000000, 16.292893) rotate(-315.000000) translate(-17.000000, -16.292893) translate(9.500000, 0.792893)" fill="#FFC755">
                        <path d="M1.41139406,0.904144661 L3.69710834,0.904144661 C4.01269963,0.904144661 4.26853691,1.15998195 4.26853691,1.47557323 L4.26853691,27.3327161 C4.26853691,27.6483074 4.01269963,27.9041447 3.69710834,27.9041447 L1.41139406,27.9041447 C1.09580277,27.9041447 0.839965485,27.6483074 0.839965485,27.3327161 L0.839965485,1.47557323 C0.839965485,1.15998195 1.09580277,0.904144661 1.41139406,0.904144661 Z" id="矩形备份-4" transform="translate(2.554251, 14.404145) rotate(-360.000000) translate(-2.554251, -14.404145) "></path>
                        <path d="M6.62199359,0.904144661 L8.90770788,0.904144661 C9.22329916,0.904144661 9.47913645,1.15998195 9.47913645,1.47557323 L9.47913645,30.0470018 C9.47913645,30.3625931 9.22329916,30.6184304 8.90770788,30.6184304 L6.62199359,30.6184304 C6.30640231,30.6184304 6.05056502,30.3625931 6.05056502,30.0470018 L6.05056502,1.47557323 C6.05056502,1.15998195 6.30640231,0.904144661 6.62199359,0.904144661 Z" id="矩形备份-7" transform="translate(7.764851, 15.761288) rotate(-360.000000) translate(-7.764851, -15.761288) "></path>
                        <path d="M11.6971083,0.904144661 L13.9828226,0.904144661 C14.2984139,0.904144661 14.5542512,1.15998195 14.5542512,1.47557323 L14.5542512,30.3327161 C14.5542512,30.6483074 14.2984139,30.9041447 13.9828226,30.9041447 L11.6971083,30.9041447 C11.3815171,30.9041447 11.1256798,30.6483074 11.1256798,30.3327161 L11.1256798,1.47557323 C11.1256798,1.15998195 11.3815171,0.904144661 11.6971083,0.904144661 Z" id="矩形备份-8" transform="translate(12.839965, 15.904145) rotate(-360.000000) translate(-12.839965, -15.904145) "></path>
                    </g>
                </g>
            </g>
        </g>
    </g>
</svg>