<?xml version="1.0" encoding="UTF-8"?>
<svg width="41px" height="42px" viewBox="0 0 41 42" version="1.1" xmlns="http://www.w3.org/2000/svg" xmlns:xlink="http://www.w3.org/1999/xlink">
    <!-- Generator: Sketch 60 (88103) - https://sketch.com -->
    <title>icon_ After sale_kuaisugongdan</title>
    <desc>Created with Sketch.</desc>
    <g id="服务助手首页" stroke="none" stroke-width="1" fill="none" fill-rule="evenodd">
        <g transform="translate(-214.000000, -234.000000)" id="编组-3">
            <g transform="translate(214.000000, 235.000000)">
                <g id="编组-4">
                    <rect id="矩形-copy-10" fill="#B68CF1" x="0" y="0" width="40.1012658" height="40.1012658" rx="10.9367089"></rect>
                    <path d="M14.7414869,13.9473684 L29.478329,13.9473684 C30.1178166,13.9473684 30.6362237,14.4657756 30.6362237,15.1052632 L30.6362237,29.8421053 C30.6362237,30.4815929 30.1178166,31 29.478329,31 L14.7414869,31 C14.1019993,31 13.5835922,30.4815929 13.5835922,29.8421053 L13.5835922,15.1052632 C13.5835922,14.4657756 14.1019993,13.9473684 14.7414869,13.9473684 Z" id="矩形" fill="#FFFFFF"></path>
                    <path d="M24.4144095,21.1944519 L24.4144095,25.762017 C24.4144095,25.9155634 24.3534134,26.0628209 24.2448397,26.1713946 L21.8091463,28.607088 L19.373453,26.1713946 C19.2648793,26.0628209 19.2038832,25.9155634 19.2038832,25.762017 L19.2038832,21.1944519 L24.4144095,21.1944519 Z M23.8354621,17.1685853 C24.1552059,17.1685853 24.4144095,17.4277889 24.4144095,17.7475327 L24.4144095,19.4670723 L19.2038832,19.4670723 L19.2038832,17.7475327 C19.2038832,17.4277889 19.4630868,17.1685853 19.7828306,17.1685853 L23.8354621,17.1685853 Z" id="形状结合" fill="#B68CF1" transform="translate(21.809146, 22.887837) rotate(-315.000000) translate(-21.809146, -22.887837) "></path>
                    <path d="M24.5309606,9 C25.1704482,9 25.6888553,9.51840713 25.6888553,10.1578947 L25.6882237,12.231 L12.981303,12.2315799 C12.3844479,12.2315799 11.8930673,12.6831701 11.8302026,13.2633093 L11.8234082,13.3894747 L11.8232237,26.052 L9.79411848,26.0526316 C9.15463087,26.0526316 8.63622374,25.5342244 8.63622374,24.8947368 L8.63622374,10.1578947 C8.63622374,9.51840713 9.15463087,9 9.79411848,9 L24.5309606,9 Z" id="形状结合" fill="#FFFFFF" opacity="0.8"></path>
                </g>
            </g>
        </g>
    </g>
</svg>