<?xml version="1.0" encoding="UTF-8"?>
<svg width="41px" height="41px" viewBox="0 0 41 41" version="1.1" xmlns="http://www.w3.org/2000/svg" xmlns:xlink="http://www.w3.org/1999/xlink">
    <!-- Generator: Sketch 60 (88103) - https://sketch.com -->
    <title>icon_ After sale_neishijiancha</title>
    <desc>Created with Sketch.</desc>
    <g id="服务助手首页" stroke="none" stroke-width="1" fill="none" fill-rule="evenodd">
        <g transform="translate(-27.000000, -320.000000)" id="分组-17备份">
            <g transform="translate(27.000000, 320.000000)">
                <rect id="矩形-copy-8" fill="#52C5D2" x="0" y="0" width="40.1012658" height="40.1012658" rx="10.9367089"></rect>
                <g id="编组-3备份" transform="translate(8.000000, 9.000000)">
                    <g id="编组-2备份">
                        <path d="M17.5344603,0.690498089 C18.0575262,0.690498089 18.5183717,1.03433622 18.6673378,1.53574128 L20.0805653,6.29175925 C19.8520278,6.27279936 19.6208541,6.26313007 19.3874229,6.26313007 C14.8186138,6.26313007 11.1146451,9.96709877 11.1146451,14.5359078 C11.1146451,15.9053177 11.4474146,17.1970345 12.0364998,18.3346035 L6.4866506,18.3343037 C6.4866506,19.8065271 5.29317771,21 3.82095429,21 L3.33771855,21 C1.5986114,21 0.188786504,19.5901751 0.188786504,17.851068 L0.188786504,9.78242578 C0.188786504,9.12972562 0.717904527,8.60060759 1.37060469,8.60060759 L2.64261852,8.60060759 L4.66895479,1.54604629 C4.81445765,1.03948728 5.27780118,0.690498089 5.80484304,0.690498089 L17.5344603,0.690498089 Z" id="形状结合" fill="#FFFFFF"></path>
                        <path d="M4.93598906,15.3993386 C5.99336332,15.3993386 6.85053452,14.5421674 6.85053452,13.4847931 C6.85053452,12.4274189 5.99336332,11.5702477 4.93598906,11.5702477 C3.8786148,11.5702477 3.02144361,12.4274189 3.02144361,13.4847931 C3.02144361,14.5421674 3.8786148,15.3993386 4.93598906,15.3993386 Z" id="椭圆形" fill="#52C5D2"></path>
                    </g>
                    <path d="M19.3874621,21.0768617 C15.8335814,21.0768617 12.9524229,18.1957189 12.9524229,14.641901 C12.9524229,11.0880202 15.8335814,8.20686173 19.3874621,8.20686173 C22.9412801,8.20686173 25.8224229,11.0880202 25.8224229,14.641901 C25.8224229,18.1957189 22.9412801,21.0768617 19.3874621,21.0768617 Z" id="Fill-1" fill-opacity="0.8" fill="#FFFFFF"></path>
                    <path d="M19.3873724,18.0506329 C17.4544147,18.0506329 15.887351,16.4835778 15.887351,14.5506543 C15.887351,12.6176966 17.4544147,11.0506329 19.3873724,11.0506329 C21.3202959,11.0506329 22.887351,12.6176966 22.887351,14.5506543 C22.887351,16.4835778 21.3202959,18.0506329 19.3873724,18.0506329 Z" id="Fill-1" fill="#52C5D2"></path>
                </g>
            </g>
        </g>
    </g>
</svg>