<?xml version="1.0" encoding="UTF-8"?>
<svg width="24px" height="24px" viewBox="0 0 24 24" version="1.1" xmlns="http://www.w3.org/2000/svg" xmlns:xlink="http://www.w3.org/1999/xlink">
    <!-- Generator: Sketch 60 (88103) - https://sketch.com -->
    <title>icon/login/Password@2x</title>
    <desc>Created with Sketch.</desc>
    <defs>
        <path d="M9.29665072,0.25 C12.4118627,0.25 15.1337669,2.28986079 16.0604568,5.23314072 C16.2788044,5.9266391 16.3911483,6.65351326 16.3911483,7.39473684 C16.3911483,7.8089504 16.0553619,8.14473684 15.6411483,8.14473684 C15.2269348,8.14473684 14.8911483,7.8089504 14.8911483,7.39473684 C14.8911483,6.80674478 14.8022797,6.2317578 14.6296971,5.68361456 C13.8978411,3.35915064 11.7506583,1.75 9.29665072,1.75 C6.20822499,1.75 3.70215311,4.27591634 3.70215311,7.39473684 L3.70215311,7.39473684 L3.702,9.25 L17.0052632,9.25 C17.4747052,9.25 17.8552632,9.63055796 17.8552632,10.1 L17.8552632,18.9 C17.8552632,19.369442 17.4747052,19.75 17.0052632,19.75 L1.1,19.75 C0.630557963,19.75 0.25,19.369442 0.25,18.9 L0.25,10.1 C0.25,9.63055796 0.630557963,9.25 1.1,9.25 L2.202,9.25 L2.20215311,7.39473684 C2.20215311,3.53062833 5.24886904,0.380927463 9.05763148,0.253977619 Z M16.3552632,10.75 L1.75,10.75 L1.75,18.25 L16.3552632,18.25 L16.3552632,10.75 Z M11.6642959,13.5387624 C12.0785094,13.5387624 12.4142959,13.8745489 12.4142959,14.2887624 C12.4142959,14.702976 12.0785094,15.0387624 11.6642959,15.0387624 L11.6642959,15.0387624 L6.71136687,15.0387624 C6.29715331,15.0387624 5.96136687,14.702976 5.96136687,14.2887624 C5.96136687,13.8745489 6.29715331,13.5387624 6.71136687,13.5387624 L6.71136687,13.5387624 Z" id="path-1"></path>
    </defs>
    <g id="登录" stroke="none" stroke-width="1" fill="none" fill-rule="evenodd">
        <g id="账号密码登录-默认" transform="translate(-30.000000, -297.000000)">
            <g id="icon/login/User-name备份" transform="translate(30.000000, 297.000000)">
                <g id="icon_5_normal">
                    <g id="color/c2" transform="translate(3.000000, 2.000000)">
                        <mask id="mask-2" fill="white">
                            <use xlink:href="#path-1"></use>
                        </mask>
                        <g id="蒙版" fill-rule="nonzero"></g>
                        <g id="color/c11" mask="url(#mask-2)" fill="#1371F7">
                            <g transform="translate(-3.000000, -2.000000)" id="color">
                                <rect x="0" y="0" width="24.1538462" height="24.1538462"></rect>
                            </g>
                        </g>
                    </g>
                </g>
            </g>
        </g>
    </g>
</svg>