<?xml version="1.0" encoding="UTF-8"?>
<svg width="26px" height="26px" viewBox="0 0 26 26" version="1.1" xmlns="http://www.w3.org/2000/svg" xmlns:xlink="http://www.w3.org/1999/xlink">
    <!-- Generator: Sketch 60 (88103) - https://sketch.com -->
    <title>icon/cell/public/Close@2x</title>
    <desc>Created with Sketch.</desc>
    <defs>
        <path d="M9.75,3.64153152e-13 C15.1347763,3.64153152e-13 19.5,4.36522369 19.5,9.75 C19.5,15.1347763 15.1347763,19.5 9.75,19.5 C4.36522369,19.5 -9.05941988e-14,15.1347763 -9.05941988e-14,9.75 C-9.05941988e-14,4.36522369 4.36522369,3.64153152e-13 9.75,3.64153152e-13 Z M9.75,0.965346535 C4.89836986,0.965346535 0.965346535,4.89836986 0.965346535,9.75 C0.965346535,14.6016301 4.89836986,18.5346535 9.75,18.5346535 C14.6016301,18.5346535 18.5346535,14.6016301 18.5346535,9.75 C18.5346535,4.89836986 14.6016301,0.965346535 9.75,0.965346535 Z M13.7504086,5.55917163 L13.9408284,5.7495914 C14.1144402,5.92320319 14.1130061,6.20611762 13.9440765,6.3750472 L10.5684856,9.74948563 L13.9440765,13.1249528 C14.1158944,13.2967707 14.1124999,13.5787371 13.9408284,13.7504086 L13.7504086,13.9408284 C13.5767968,14.1144402 13.2938824,14.1130061 13.1249528,13.9440765 L9.74948563,10.5684856 L6.3750472,13.9440765 C6.20322929,14.1158944 5.9212629,14.1124999 5.7495914,13.9408284 L5.55917163,13.7504086 C5.38555984,13.5767968 5.38699392,13.2938824 5.5559235,13.1249528 L8.93048563,9.74948563 L5.5559235,6.3750472 C5.3841056,6.20322929 5.38750013,5.9212629 5.55917163,5.7495914 L5.7495914,5.55917163 C5.92320319,5.38555984 6.20611762,5.38699392 6.3750472,5.5559235 L9.74948563,8.93048563 L13.1249528,5.5559235 C13.2967707,5.3841056 13.5787371,5.38750013 13.7504086,5.55917163 Z" id="path-1"></path>
    </defs>
    <g id="-配置文件" stroke="none" stroke-width="1" fill="none" fill-rule="evenodd">
        <g id="-样式文件-上拉菜单" transform="translate(-391.000000, -1263.000000)">
            <g id="分组-7-copy-8" transform="translate(54.000000, 1251.000000)">
                <g id="分组-6">
                    <g id="title-bar/picker">
                        <g id="icon/public/Close" transform="translate(337.000000, 12.000000)">
                            <g id="color/c3" transform="translate(3.250000, 3.250000)">
                                <mask id="mask-2" fill="white">
                                    <use xlink:href="#path-1"></use>
                                </mask>
                                <g id="Mask" fill-rule="nonzero"></g>
                                <g id="color/c3-2" mask="url(#mask-2)" fill="#9EA2A8">
                                    <g transform="translate(-3.250000, -3.250000)" id="color">
                                        <rect x="0" y="0" width="26" height="26"></rect>
                                    </g>
                                </g>
                            </g>
                        </g>
                    </g>
                </g>
            </g>
        </g>
    </g>
</svg>