<?xml version="1.0" encoding="UTF-8"?>
<svg width="23px" height="24px" viewBox="0 0 23 24" version="1.1" xmlns="http://www.w3.org/2000/svg" xmlns:xlink="http://www.w3.org/1999/xlink">
    <!-- Generator: Sketch 63.1 (92452) - https://sketch.com -->
    <title>icon/cell/search@2x</title>
    <desc>Created with Sketch.</desc>
    <defs>
        <path d="M15.3444388,14.0371923 L16.9738882,15.6535913 C17.3390887,16.0158669 17.3414599,16.605603 16.9791842,16.9708035 C16.977426,16.972576 16.9756606,16.9743413 16.9738882,16.9760996 C16.6048752,17.3421571 16.0097153,17.3421571 15.6407023,16.9760996 L14.011253,15.3597006 C13.6460524,14.9974249 13.6436813,14.4076889 14.0059569,14.0424883 C14.0077152,14.0407159 14.0094805,14.0389505 14.011253,14.0371923 C14.380266,13.6711347 14.9754258,13.6711347 15.3444388,14.0371923 Z M2.31155116,13.3605115 C0.88338646,11.9442634 0,9.98740735 0,7.82604012 C0,3.50383796 3.53225795,0 7.88951793,0 C12.2467779,0 15.7789285,3.50383796 15.7789285,7.82604012 C15.7789285,9.98740735 14.8955421,11.9442634 13.4674847,13.3605115 C12.0398566,14.7763337 10.0677723,15.6519738 7.88951793,15.6519738 C5.71126357,15.6519738 3.73917923,14.7763337 2.31155116,13.3605115 L2.31155116,13.3605115 Z M3.42695703,3.39037586 C0.972209899,5.82537248 0.972209899,9.77225887 3.42695703,12.2061463 C4.56408912,13.3344619 6.13509597,14.0323937 7.87059503,14.0323937 C9.60598227,14.0323937 11.177101,13.3344619 12.314233,12.2061463 C13.4517006,11.0781634 14.1552934,9.51968565 14.1552934,7.79826106 C14.1552934,6.07672554 13.4517006,4.51835876 12.314233,3.39037586 C9.86060414,0.955379229 5.88170416,0.955379229 3.42695703,3.39037586 Z" id="path-1"></path>
    </defs>
    <g id="快速工单" stroke="none" stroke-width="1" fill="none" fill-rule="evenodd">
        <g id="修改维修项目-维修组合" transform="translate(-20.000000, -255.000000)">
            <g id="编组-2" transform="translate(-3.000000, 197.000000)">
                <g id="编组">
                    <g id="currency/searchbar/baidi-sousuo" transform="translate(2.000000, 49.500000)">
                        <g id="currency/searchbar" transform="translate(15.000000, 6.000000)">
                            <g id="icon/cell/search" transform="translate(6.000000, 3.000000)">
                                <g id="color/c2" transform="translate(2.875000, 2.875000)">
                                    <mask id="mask-2" fill="white">
                                        <use xlink:href="#path-1"></use>
                                    </mask>
                                    <g id="Mask"></g>
                                    <g id="color/c3" mask="url(#mask-2)" fill="#C3C3C3">
                                        <g transform="translate(-2.875000, -2.875000)" id="color">
                                            <rect x="0" y="0" width="23" height="23"></rect>
                                        </g>
                                    </g>
                                </g>
                            </g>
                        </g>
                    </g>
                </g>
            </g>
        </g>
    </g>
</svg>