<?xml version="1.0" encoding="UTF-8"?>
<svg width="41px" height="41px" viewBox="0 0 41 41" version="1.1" xmlns="http://www.w3.org/2000/svg" xmlns:xlink="http://www.w3.org/1999/xlink">
    <!-- Generator: Sketch 60 (88103) - https://sketch.com -->
    <title>icon_ After sale_shouhoubaobiao</title>
    <desc>Created with Sketch.</desc>
    <g id="服务助手首页" stroke="none" stroke-width="1" fill="none" fill-rule="evenodd" transform="translate(-27.000000, -405.000000)">
        <g id="分组-19备份-3" transform="translate(22.000000, 405.000000)">
            <g id="分组-17备份-4" transform="translate(5.000000, 0.000000)">
                <rect id="矩形-copy-8" fill="#FFC755" x="0" y="0" width="40.1012658" height="40.1012658" rx="10.9367089"></rect>
                <g id="编组-2" transform="translate(8.000000, 10.000000)">
                    <path d="M2.39611538,0 L6.39611538,0 C6.94840013,-1.01453063e-16 7.39611538,0.44771525 7.39611538,1 L7.39611538,16.5303691 L7.39611538,16.5303691 L1.39611538,16.5303691 L1.39611538,1 C1.39611538,0.44771525 1.84383063,1.01453063e-16 2.39611538,0 Z" id="矩形" fill="#FFFFFF"></path>
                    <path d="M10.0577792,6.74685289 L14.0577792,6.74685289 C14.610064,6.74685289 15.0577792,7.19456814 15.0577792,7.74685289 L15.0577792,16.5303691 L15.0577792,16.5303691 L9.05777921,16.5303691 L9.05777921,7.74685289 C9.05777921,7.19456814 9.50549446,6.74685289 10.0577792,6.74685289 Z" id="矩形备份-5" fill="#FFFFFF"></path>
                    <path d="M17.657284,2 L21.657284,2 C22.2095688,2 22.657284,2.44771525 22.657284,3 L22.657284,16.5303691 L22.657284,16.5303691 L16.657284,16.5303691 L16.657284,3 C16.657284,2.44771525 17.1049993,2 17.657284,2 Z" id="矩形备份-6" fill="#FFFFFF" opacity="0.8"></path>
                    <line x1="0.485004392" y1="18.8396739" x2="23.4850044" y2="18.8396739" id="路径-4" stroke="#FFFFFF" stroke-width="1.5" stroke-linecap="round"></line>
                </g>
            </g>
        </g>
    </g>
</svg>