<?xml version="1.0" encoding="UTF-8"?>
<svg width="24px" height="24px" viewBox="0 0 24 24" version="1.1" xmlns="http://www.w3.org/2000/svg" xmlns:xlink="http://www.w3.org/1999/xlink">
    <!-- Generator: Sketch 60 (88103) - https://sketch.com -->
    <title>icon/login/User name@2x</title>
    <desc>Created with Sketch.</desc>
    <defs>
        <path d="M14.4640268,17.7635135 C14.8782403,17.7635135 15.2140268,18.0993 15.2140268,18.5135135 C15.2140268,18.9277271 14.8782403,19.2635135 14.4640268,19.2635135 L14.4640268,19.2635135 L2.83072546,19.2635135 C2.4165119,19.2635135 2.08072546,18.9277271 2.08072546,18.5135135 C2.08072546,18.0993 2.4165119,17.7635135 2.83072546,17.7635135 L2.83072546,17.7635135 Z M8.48933144,0.25 C13.0354911,0.25 16.7286629,3.84847504 16.7286629,8.2972973 C16.7286629,12.7461196 13.0354911,16.3445946 8.48933144,16.3445946 C3.94317175,16.3445946 0.25,12.7461196 0.25,8.2972973 C0.25,3.84847504 3.94317175,0.25 8.48933144,0.25 Z M8.48933144,1.75 C4.76300404,1.75 1.75,4.68574753 1.75,8.2972973 C1.75,11.9088471 4.76300404,14.8445946 8.48933144,14.8445946 C12.2156588,14.8445946 15.2286629,11.9088471 15.2286629,8.2972973 C15.2286629,4.68574753 12.2156588,1.75 8.48933144,1.75 Z M9.98719772,9.97972973 C10.4014113,9.97972973 10.7371977,10.3155162 10.7371977,10.7297297 C10.7371977,11.1439433 10.4014113,11.4797297 9.98719772,11.4797297 L9.98719772,11.4797297 L7.32432432,11.4797297 C6.91011076,11.4797297 6.57432432,11.1439433 6.57432432,10.7297297 C6.57432432,10.3155162 6.91011076,9.97972973 7.32432432,9.97972973 L7.32432432,9.97972973 Z" id="path-1"></path>
    </defs>
    <g id="登录" stroke="none" stroke-width="1" fill="none" fill-rule="evenodd">
        <g id="账号密码登录-默认" transform="translate(-30.000000, -234.000000)">
            <g id="icon/login/User-name" transform="translate(30.000000, 234.000000)">
                <g id="icon_5_normal">
                    <g id="color/c2" transform="translate(4.000000, 2.000000)">
                        <mask id="mask-2" fill="white">
                            <use xlink:href="#path-1"></use>
                        </mask>
                        <g id="蒙版" fill-rule="nonzero"></g>
                        <g id="color/c11" mask="url(#mask-2)" fill="#1371F7">
                            <g transform="translate(-4.000000, -2.000000)" id="color">
                                <rect x="0" y="0" width="24.1538462" height="24.1538462"></rect>
                            </g>
                        </g>
                    </g>
                </g>
            </g>
        </g>
    </g>
</svg>