<?xml version="1.0" encoding="UTF-8"?>
<svg width="48px" height="48px" viewBox="0 0 48 48" version="1.1" xmlns="http://www.w3.org/2000/svg" xmlns:xlink="http://www.w3.org/1999/xlink">
    <!-- Generator: Sketch 60 (88103) - https://sketch.com -->
    <title>icon/colour/upload image@2x</title>
    <desc>Created with Sketch.</desc>
    <defs>
        <circle id="path-1" cx="24" cy="24" r="24"></circle>
        <path d="M22.5,0.151537423 C23.8382284,0.151537423 24.9230769,1.23638591 24.9230769,2.57461435 L24.9230769,2.57461435 L24.9230769,21.9592297 C24.9230769,23.2974582 23.8382284,24.3823067 22.5,24.3823067 L22.5,24.3823067 L3.11538462,24.3823067 C1.77715618,24.3823067 0.692307692,23.2974582 0.692307692,21.9592297 L0.692307692,21.9592297 L0.692307692,2.57461435 C0.692307692,1.23638591 1.77715618,0.151537423 3.11538462,0.151537423 L3.11538462,0.151537423 Z M22.5,2.2284605 L3.11538462,2.2284605 C2.92420913,2.2284605 2.76923077,2.38343886 2.76923077,2.57461435 L2.76923077,2.57461435 L2.76923077,21.9592297 C2.76923077,22.1504052 2.92420913,22.3053836 3.11538462,22.3053836 L3.11538462,22.3053836 L22.5,22.3053836 C22.6911755,22.3053836 22.8461538,22.1504052 22.8461538,21.9592297 L22.8461538,21.9592297 L22.8461538,2.57461435 C22.8461538,2.38343886 22.6911755,2.2284605 22.5,2.2284605 L22.5,2.2284605 Z M11.0086531,6.56897997 C11.3503502,6.56897997 11.684402,6.6701227 11.9687111,6.85966215 L11.9687111,6.85966215 L18.3360203,11.1045349 C19.1313584,11.6347603 19.3462747,12.7093419 18.8160493,13.50468 C18.6892967,13.694809 18.5261493,13.8579564 18.3360203,13.984709 L18.3360203,13.984709 L11.9687111,18.2295818 C11.173373,18.7598072 10.0987915,18.5448909 9.56856606,17.7495528 C9.37902661,17.4652436 9.27788387,17.1311919 9.27788387,16.7894948 L9.27788387,16.7894948 L9.27788387,8.2997492 C9.27788387,7.34387174 10.0527757,6.56897997 11.0086531,6.56897997 Z M11.354807,8.94600659 L11.354807,16.1418527 L16.7492685,12.544622 L11.354807,8.94600659 Z" id="path-3"></path>
    </defs>
    <g id="内饰检查" stroke="none" stroke-width="1" fill="none" fill-rule="evenodd">
        <g id="内饰检查-列表-详情-上传图片/视频" transform="translate(-244.000000, -327.000000)">
            <g id="编组-11" transform="translate(15.000000, 213.000000)">
                <g id="分组-2">
                    <g id="alert_two_btn">
                        <g id="分组-2-copy">
                            <g id="currency/placeholder/2备份" transform="translate(182.000000, 78.000000)">
                                <g id="编组-3" transform="translate(47.000000, 36.000000)">
                                    <g id="icon/colour/upload-image">
                                        <g id="编组">
                                            <g id="color/c11">
                                                <mask id="mask-2" fill="white">
                                                    <use xlink:href="#path-1"></use>
                                                </mask>
                                                <g id="蒙版" opacity="0.3" fill-rule="nonzero"></g>
                                                <g opacity="0.2" mask="url(#mask-2)" fill="#1371F7" id="color">
                                                    <rect x="0" y="0" width="48" height="48"></rect>
                                                </g>
                                            </g>
                                            <g id="icon/Line/video" transform="translate(7.384615, 7.384615)">
                                                <g id="color/c2" transform="translate(4.153846, 4.153846)">
                                                    <mask id="mask-4" fill="white">
                                                        <use xlink:href="#path-3"></use>
                                                    </mask>
                                                    <g id="蒙版" fill-rule="nonzero"></g>
                                                    <g id="color/cwhite" mask="url(#mask-4)" fill="#FFFFFF">
                                                        <g transform="translate(-4.153846, -4.153846)" id="color">
                                                            <rect x="0" y="0" width="33.2307692" height="33.2307692"></rect>
                                                        </g>
                                                    </g>
                                                </g>
                                            </g>
                                        </g>
                                    </g>
                                </g>
                            </g>
                        </g>
                    </g>
                </g>
            </g>
        </g>
    </g>
</svg>