<?xml version="1.0" encoding="UTF-8"?>
<svg width="41px" height="41px" viewBox="0 0 41 41" version="1.1" xmlns="http://www.w3.org/2000/svg" xmlns:xlink="http://www.w3.org/1999/xlink">
    <!-- Generator: Sketch 60 (88103) - https://sketch.com -->
    <title>icon_ After sale_waiguanjiancha</title>
    <desc>Created with Sketch.</desc>
    <g id="服务助手首页" stroke="none" stroke-width="1" fill="none" fill-rule="evenodd">
        <g transform="translate(-121.000000, -235.000000)" id="分组-17备份-5">
            <g transform="translate(121.000000, 235.000000)">
                <rect id="矩形-copy-8" fill="#4DC59C" x="0" y="0" width="40.1012658" height="40.1012658" rx="10.9367089"></rect>
                <g id="编组-3备份-2" transform="translate(7.000000, 9.000000)">
                    <g id="编组-2备份">
                        <path d="M17.7766435,0.491886807 C18.6653446,0.491886807 19.4483318,1.07607577 19.7014287,1.9279746 L20.9459628,6.11539515 C20.7164401,6.09634685 20.4842687,6.08663241 20.2498293,6.08663241 C15.6628901,6.08663241 11.9442231,9.80529939 11.9442231,14.3922387 C11.9442231,15.7670079 12.2782768,17.0637843 12.8696394,18.2058221 L7.29786352,18.2057075 C7.29786352,19.6837731 6.09965463,20.881982 4.62158906,20.881982 L4.13643571,20.881982 C2.39042735,20.881982 0.975007905,19.4665625 0.975007905,17.7205542 L0.975007905,9.61989357 C0.975007905,8.96460333 1.5062256,8.43338564 2.16151584,8.43338564 L3.43857735,8.43338564 L5.30214784,1.94548305 C5.54936059,1.08482754 6.33659199,0.491886807 7.23204833,0.491886807 L17.7766435,0.491886807 Z" id="形状结合" fill="#FFFFFF"></path>
                        <path d="M5.74104857,15.2590957 C6.80261875,15.2590957 7.66319142,14.398523 7.66319142,13.3369529 C7.66319142,12.2753827 6.80261875,11.41481 5.74104857,11.41481 C4.67947838,11.41481 3.81890571,12.2753827 3.81890571,13.3369529 C3.81890571,14.398523 4.67947838,15.2590957 5.74104857,15.2590957 Z" id="椭圆形" fill="#4DC59C"></path>
                    </g>
                    <path d="M20.2498688,20.9591487 C16.6818853,20.9591487 13.7892936,18.0665728 13.7892936,14.4986524 C13.7892936,10.930669 16.6818853,8.03807728 20.2498688,8.03807728 C23.8177891,8.03807728 26.710365,10.930669 26.710365,14.4986524 C26.710365,18.0665728 23.8177891,20.9591487 20.2498688,20.9591487 Z" id="Fill-1" fill="#FFFFFF" opacity="0.8"></path>
                    <path d="M22.1673064,15.2414414 C22.1673064,15.2414414 21.9559822,15.0648648 22.0989786,14.8409067 C22.2451767,14.4937155 22.32035,14.1207201 22.3200976,13.744018 C22.3200976,12.1785665 21.0529888,10.9094072 19.4903606,10.9094072 C19.2278379,10.9096596 18.9665928,10.9469307 18.7145433,11.0202428 C18.5034558,11.093192 18.6533606,11.2471031 18.6533606,11.2471031 L19.9569519,12.5526818 C20.3757358,12.9724436 20.3757358,13.6519048 19.9569519,14.0716666 L19.8306432,14.1979753 C19.6297291,14.399331 19.357033,14.512501 19.0725703,14.512501 C18.7881708,14.512501 18.5154115,14.399331 18.3145448,14.1979753 L16.9905592,12.871403 C16.9905592,12.871403 16.8547711,12.7577284 16.7823739,12.9288791 C16.7018379,13.1931999 16.6608759,13.4679938 16.6606235,13.7443177 C16.6606235,15.3097693 17.9274958,16.5791809 19.4903606,16.5791809 C19.8999647,16.5796068 20.3046951,16.4905219 20.6762236,16.3181882 C20.8390621,16.2337721 20.960497,16.3727779 20.960497,16.3727779 L22.7335819,18.1509731 C22.9041964,18.3223763 23.1461513,18.4024233 23.3853302,18.366619 C23.6245722,18.3308147 23.9825992,18.3129599 24.1158006,17.6459435 C24.156463,17.4024428 24.0770468,17.1543365 23.9025049,16.9797788 L22.1673064,15.2414414 Z" id="路径" fill="#4DC59C"></path>
                </g>
            </g>
        </g>
    </g>
</svg>