<?xml version="1.0" encoding="UTF-8"?>
<svg width="42px" height="42px" viewBox="0 0 42 42" version="1.1" xmlns="http://www.w3.org/2000/svg" xmlns:xlink="http://www.w3.org/1999/xlink">
    <!-- Generator: Sketch 60 (88103) - https://sketch.com -->
    <title>icon/mycard/share/weixin</title>
    <desc>Created with Sketch.</desc>
    <g id="登录" stroke="none" stroke-width="1" fill="none" fill-rule="evenodd">
        <g id="账号密码登录-默认" transform="translate(-167.000000, -532.000000)">
            <g id="分组-8" transform="translate(166.000000, 532.000000)">
                <g id="微信" transform="translate(1.000000, 0.000000)">
                    <circle id="椭圆形" stroke="#45C277" stroke-width="0.5" cx="21" cy="21" r="20.75"></circle>
                    <path d="M25.5105008,16.3732993 C25.8074535,16.3732993 26.1019786,16.3959284 26.390478,16.4288317 C25.5974191,12.7380343 21.6531065,10 17.1554213,10 C12.1229178,10 8,13.4306061 8,17.787748 C8,20.298581 9.37313546,22.3642449 11.6636164,23.9676162 L10.7486118,26.7207799 L13.9487219,25.1146775 C15.0924885,25.3410118 16.0098774,25.5742822 17.1554646,25.5742822 C17.4415363,25.5742822 17.7264376,25.5609736 18.0076973,25.5380843 C17.8302627,24.9254947 17.7264376,24.2853773 17.7264376,23.6208534 C17.7263508,19.6201416 21.1599915,16.3732993 25.5105008,16.3732993 Z M20.5896255,13.892075 C21.2764749,13.892075 21.7346058,14.3441368 21.7346058,15.0337174 C21.7346058,15.7202634 21.2765183,16.1798683 20.5896255,16.1798683 C19.902169,16.1798683 19.2134988,15.7202635 19.2134988,15.0337174 C19.2135422,14.3441368 19.9021691,13.892075 20.5896255,13.892075 Z M14.1810387,16.1798682 C13.4941892,16.1798682 12.8000567,15.7202634 12.8000567,15.0337174 C12.8000567,14.3441801 13.4941458,13.892075 14.1810387,13.892075 C14.8666743,13.892075 15.3211638,14.3441367 15.3211638,15.0337174 C15.3211638,15.7202634 14.8666743,16.1798682 14.1810387,16.1798682 Z M33.8656236,23.5104391 C33.8656236,19.849207 30.2043915,16.8661108 26.0917478,16.8661108 C21.7346492,16.8661108 18.302179,19.849207 18.302179,23.5104391 C18.302179,27.1780005 21.7346058,30.1529467 26.0917478,30.1529467 C27.0031109,30.1529467 27.9205431,29.9247916 28.8367616,29.6948591 L31.3494152,31.0709858 L30.6589243,28.7828891 C32.4985573,27.4042915 33.8656236,25.5743257 33.8656236,23.5104391 Z M23.5651786,22.3642449 C23.1089118,22.3642449 22.6490036,21.9103624 22.6490036,21.4489369 C22.6490036,20.9917164 23.1089118,20.5334988 23.5651786,20.5334988 C24.2574903,20.5334988 24.7107659,20.9917597 24.7107659,21.4489369 C24.7107659,21.9104057 24.2574903,22.3642449 23.5651786,22.3642449 Z M28.6007167,22.3642449 C28.148048,22.3642449 27.6917379,21.9103624 27.6917379,21.4489369 C27.6917379,20.9917164 28.1480047,20.5334988 28.6007167,20.5334988 C29.2881731,20.5334988 29.7480813,20.9917597 29.7480813,21.4489369 C29.7481247,21.9104057 29.2881731,22.3642449 28.6007167,22.3642449 Z" id="形状" fill="#45C277" fill-rule="nonzero"></path>
                </g>
            </g>
        </g>
    </g>
</svg>