<?xml version="1.0" encoding="UTF-8"?>
<svg width="41px" height="41px" viewBox="0 0 41 41" version="1.1" xmlns="http://www.w3.org/2000/svg" xmlns:xlink="http://www.w3.org/1999/xlink">
    <!-- Generator: Sketch 60 (88103) - https://sketch.com -->
    <title>icon_ intention_xiaoxitixing</title>
    <desc>Created with Sketch.</desc>
    <g id="服务助手首页" stroke="none" stroke-width="1" fill="none" fill-rule="evenodd">
        <g transform="translate(-122.000000, -405.000000)" id="分组-19备份-2">
            <g transform="translate(117.000000, 405.000000)">
                <g id="分组-17备份-4" transform="translate(5.000000, 0.000000)">
                    <rect id="矩形-copy-8" fill="#B68CF1" x="0" y="0" width="40.1012658" height="40.1012658" rx="10.9367089"></rect>
                    <g id="编组-4" transform="translate(10.000000, 9.000000)" fill="#FFFFFF">
                        <path d="M12.9885608,3.56171515 L12.9885608,2.81834333 C12.9885608,2.76822045 12.9872523,2.71840318 12.9846678,2.66892381 C12.9069899,1.18185849 11.6766226,9.219292e-13 10.1702175,9.219292e-13 C8.65953153,9.219292e-13 7.42645451,1.18858503 7.35513289,2.6816086" id="路径" opacity="0.8"></path>
                        <path d="M15.2548056,21.382906 C14.5589224,19.3572867 12.6296979,17.9326401 10.4001844,17.9326401 C8.14271485,17.9326401 6.20247076,19.3910176 5.52574733,21.4414835" id="路径" transform="translate(10.390276, 19.687062) rotate(-180.000000) translate(-10.390276, -19.687062) "></path>
                        <path d="M0.496770461,14.7559853 L1.10334117,12.8908791 L1.10334117,12.8908791 L2.66634289,3.63952617 C2.76118683,3.07814819 3.24737383,2.66721179 3.81670731,2.66721179 L16.4272895,2.66721179 C16.9956974,2.66721179 17.4813773,3.07684644 17.5772434,3.63711186 L19.053782,12.2663785 L19.053782,12.2663785 L19.7486671,14.809273 C19.9185134,15.4308164 19.5523406,16.0723645 18.9307972,16.2422108 C18.8305803,16.2695966 18.7271545,16.2834736 18.6232632,16.2834736 L1.60623828,16.2834736 C0.961906077,16.2834736 0.439571618,15.7611391 0.439571618,15.1168069 C0.439571618,14.9942756 0.458874501,14.8725092 0.496770461,14.7559853 Z" id="路径备份-12"></path>
                    </g>
                </g>
            </g>
        </g>
    </g>
</svg>