<?xml version="1.0" encoding="UTF-8"?>
<svg width="41px" height="41px" viewBox="0 0 41 41" version="1.1" xmlns="http://www.w3.org/2000/svg" xmlns:xlink="http://www.w3.org/1999/xlink">
    <!-- Generator: Sketch 60 (88103) - https://sketch.com -->
    <title>icon_ After sale_yuyuejiancha</title>
    <desc>Created with Sketch.</desc>
    <defs>
        <rect id="path-1" x="0.681575283" y="0.652566436" width="21" height="21" rx="1.2"></rect>
    </defs>
    <g id="服务助手首页" stroke="none" stroke-width="1" fill="none" fill-rule="evenodd">
        <g transform="translate(-27.000000, -235.000000)" id="分组-17备份-4">
            <g transform="translate(27.000000, 235.000000)">
                <rect id="矩形-copy-8" fill="#F79562" x="0" y="0" width="40.1012658" height="40.1012658" rx="10.9367089"></rect>
                <g id="编组" transform="translate(9.000000, 9.000000)">
                    <mask id="mask-2" fill="white">
                        <use xlink:href="#path-1"></use>
                    </mask>
                    <use id="蒙版" fill="#FEFEFE" xlink:href="#path-1"></use>
                    <path d="M0.681575283,12.7025277 L3.49447215,12.7025277 C3.53335133,12.7025277 3.56937124,12.6821001 3.58932753,12.6487334 L5.93963118,8.71904995 C5.97096342,8.66666277 6.03883142,8.64959437 6.0912186,8.68092661 C6.11203921,8.6933792 6.12818432,8.71233625 6.13716363,8.73487372 L9.06053496,16.0723439 C9.08312798,16.1290508 9.14741332,16.1567057 9.2041203,16.1341127 C9.2278433,16.124661 9.24756156,16.1072863 9.25992384,16.0849416 L12.4527181,10.3139833 C12.4822687,10.2605708 12.5495235,10.2412269 12.6029359,10.2707775 C12.6256344,10.2833355 12.6431927,10.3034773 12.6525368,10.3276767 L14.5175927,15.1578093 C14.5395806,15.2147537 14.6035678,15.2430915 14.6605121,15.2211036 C14.6882921,15.210377 14.7105683,15.1888943 14.7222951,15.1615216 L16.4110773,11.2195679 C16.4284905,11.1789219 16.4684538,11.1525664 16.5126728,11.1525664 L19.4313237,11.1525664 L19.4313237,11.1525664" id="路径-2" stroke="#F79462" stroke-width="1.65789474" stroke-linecap="round" mask="url(#mask-2)"></path>
                    <path d="M4.45729414,0.652566436 L17.9707099,0.652566436 L17.9707099,4.05544257 C17.9707099,4.71818427 17.4334516,5.25544257 16.7707099,5.25544257 L5.65729414,5.25544257 C4.99455244,5.25544257 4.45729414,4.71818427 4.45729414,4.05544257 L4.45729414,0.652566436 L4.45729414,0.652566436 Z" id="矩形备份" fill="#F79462" mask="url(#mask-2)"></path>
                    <path d="M6.26052265,0.652566436 L16.2605227,0.652566436 L16.2605227,2.85256644 C16.2605227,3.29439424 15.9023505,3.65256644 15.4605227,3.65256644 L7.06052265,3.65256644 C6.61869485,3.65256644 6.26052265,3.29439424 6.26052265,2.85256644 L6.26052265,0.652566436 L6.26052265,0.652566436 Z" id="矩形备份" fill="#FEFEFE" opacity="0.8" mask="url(#mask-2)"></path>
                </g>
            </g>
        </g>
    </g>
</svg>